<?xml version="1.0" standalone="no"?>
<!DOCTYPE svg PUBLIC "-//W3C//DTD SVG 20010904//EN"
 "http://www.w3.org/TR/2001/REC-SVG-20010904/DTD/svg10.dtd">
<svg version="1.0" xmlns="http://www.w3.org/2000/svg"
 width="432.000000pt" height="432.000000pt" viewBox="0 0 432.000000 432.000000"
 preserveAspectRatio="xMidYMid meet">
<metadata>
Created by potrace 1.11, written by Peter Selinger 2001-2013
</metadata>
<g transform="translate(0.000000,432.000000) scale(0.100000,-0.100000)"
fill="#000000" stroke="none">
<path d="M1940 4270 c-239 -26 -346 -42 -425 -64 -165 -46 -240 -71 -265 -89
-13 -9 -28 -17 -33 -17 -5 0 -22 -11 -39 -25 -16 -14 -38 -25 -48 -25 -11 0
-24 -8 -29 -17 -6 -10 -11 -14 -11 -9 0 5 -9 1 -20 -9 -11 -10 -20 -15 -20
-11 0 4 -6 1 -14 -6 -365 -342 -470 -476 -571 -724 -78 -193 -159 -518 -216
-874 -29 -175 -29 -442 -1 -596 84 -462 464 -1088 837 -1379 155 -121 354
-217 550 -265 50 -12 101 -28 115 -35 18 -8 94 -11 275 -10 313 3 436 11 550
36 371 82 628 178 909 339 118 68 353 288 446 418 84 116 195 354 254 538 64
203 69 497 12 711 -9 33 -10 55 -4 61 6 6 5 18 -6 33 -8 13 -39 85 -69 159
-181 451 -306 704 -438 889 -21 29 -36 58 -33 62 3 5 -2 9 -10 9 -9 0 -16 3
-16 8 0 4 -38 52 -84 107 -47 55 -82 104 -79 109 3 5 1 6 -5 2 -6 -3 -52 32
-104 81 -187 177 -308 265 -548 399 -205 115 -413 177 -645 194 -77 5 -142 9
-145 8 -3 0 -34 -4 -70 -8z m690 -190 c0 -5 -5 -10 -11 -10 -5 0 -7 5 -4 10 3
6 8 10 11 10 2 0 4 -4 4 -10z m-620 -240 c0 -5 -5 -10 -11 -10 -5 0 -7 5 -4
10 3 6 8 10 11 10 2 0 4 -4 4 -10z m1060 0 c0 -5 -5 -10 -11 -10 -5 0 -7 5 -4
10 3 6 8 10 11 10 2 0 4 -4 4 -10z m100 -150 c0 -5 -4 -10 -10 -10 -5 0 -10 5
-10 10 0 6 5 10 10 10 6 0 10 -4 10 -10z m126 -67 c-10 -10 -19 5 -10 18 6 11
8 11 12 0 2 -7 1 -15 -2 -18z m-36 -87 c0 -2 -7 -6 -15 -10 -8 -3 -15 -1 -15
4 0 6 7 10 15 10 8 0 15 -2 15 -4z m210 -136 c0 -5 -5 -10 -11 -10 -5 0 -7 5
-4 10 3 6 8 10 11 10 2 0 4 -4 4 -10z m-296 -24 c-10 -8 -21 -12 -24 -9 -3 2
4 11 14 19 11 7 22 12 25 9 2 -3 -4 -12 -15 -19z m75 -2 c-15 -18 -22 -13 -13
10 3 9 10 13 16 10 5 -3 4 -12 -3 -20z m-249 -78 c0 -3 -4 -8 -10 -11 -5 -3
-10 -1 -10 4 0 6 5 11 10 11 6 0 10 -2 10 -4z m-285 -24 c-3 -3 -11 0 -18 7
-9 10 -8 11 6 5 10 -3 15 -9 12 -12z m235 -2 c0 -5 -8 -10 -17 -10 -15 0 -16
2 -3 10 19 12 20 12 20 0z m-2180 -14 c0 -3 -4 -8 -10 -11 -5 -3 -10 -1 -10 4
0 6 5 11 10 11 6 0 10 -2 10 -4z m1390 0 c0 -2 -9 -6 -20 -9 -11 -3 -20 -1
-20 4 0 5 9 9 20 9 11 0 20 -2 20 -4z m515 -26 c-3 -5 -10 -10 -16 -10 -5 0
-9 5 -9 10 0 6 7 10 16 10 8 0 12 -4 9 -10z m825 -3 c0 -16 -20 -37 -34 -37
-6 0 -3 7 8 15 10 7 15 18 11 24 -3 6 -1 11 4 11 6 0 11 -6 11 -13z m47 -19
c-3 -8 -6 -5 -6 6 -1 11 2 17 5 13 3 -3 4 -12 1 -19z m-363 -7 c4 -5 -3 -7
-14 -4 -23 6 -26 13 -6 13 8 0 17 -4 20 -9z m-126 -23 c-6 -18 -38 -22 -52 -8
-8 9 -6 11 12 5 13 -4 22 -2 22 4 0 6 5 11 11 11 6 0 9 -6 7 -12z m-284 -15
c-21 -15 -31 -16 -38 -4 -3 5 -16 7 -29 4 -14 -3 -18 -2 -10 4 6 5 30 8 53 8
36 0 39 -1 24 -12z m606 13 c0 -3 -4 -8 -10 -11 -5 -3 -10 -1 -10 4 0 6 5 11
10 11 6 0 10 -2 10 -4z m170 0 c0 -3 -4 -8 -10 -11 -5 -3 -10 -1 -10 4 0 6 5
11 10 11 6 0 10 -2 10 -4z m80 -10 c0 -2 -7 -9 -15 -16 -13 -11 -14 -10 -9 4
5 14 24 23 24 12z m-385 -36 c3 -6 -1 -7 -9 -4 -18 7 -21 14 -7 14 6 0 13 -4
16 -10z m37 -12 c-7 -7 -12 -8 -12 -2 0 6 3 14 7 17 3 4 9 5 12 2 2 -3 -1 -11
-7 -17z m-586 -11 c4 -4 0 -7 -9 -7 -9 0 -18 4 -21 9 -7 10 20 9 30 -2z m-116
-1 c0 -3 -4 -8 -10 -11 -5 -3 -10 -1 -10 4 0 6 5 11 10 11 6 0 10 -2 10 -4z
m630 -6 c0 -5 -5 -10 -11 -10 -5 0 -7 5 -4 10 3 6 8 10 11 10 2 0 4 -4 4 -10z
m388 -20 c-14 -22 -24 -19 -15 5 4 8 11 15 17 15 6 0 6 -7 -2 -20z m-120 -12
c-2 -6 -10 -14 -16 -16 -7 -2 -10 2 -6 12 7 18 28 22 22 4z m282 -7 c0 -5 -10
-11 -22 -14 -22 -6 -22 -6 -4 8 23 17 26 18 26 6z m-80 -36 c0 -9 -9 -15 -22
-14 -13 0 -17 3 -10 6 6 2 10 9 6 14 -3 5 2 9 10 9 9 0 16 -7 16 -15z m-50 1
c0 -3 -4 -8 -10 -11 -5 -3 -10 -1 -10 4 0 6 5 11 10 11 6 0 10 -2 10 -4z
m-430 -16 c0 -5 -2 -10 -4 -10 -3 0 -8 5 -11 10 -3 6 -1 10 4 10 6 0 11 -4 11
-10z m540 -25 c0 -5 -5 -3 -10 5 -5 8 -10 20 -10 25 0 6 5 3 10 -5 5 -8 10
-19 10 -25z m-443 9 c-3 -3 -12 -4 -19 -1 -8 3 -5 6 6 6 11 1 17 -2 13 -5z
m267 -6 c-7 -11 -54 -10 -54 1 0 5 13 9 30 9 16 -1 27 -5 24 -10z m-974 -8 c0
-5 -2 -10 -4 -10 -3 0 -8 5 -11 10 -3 6 -1 10 4 10 6 0 11 -4 11 -10z m1019
-24 c9 -11 6 -12 -15 -8 -19 3 -22 7 -12 13 16 11 14 11 27 -5z m162 -3 c13
-16 12 -17 -3 -4 -17 13 -22 21 -14 21 2 0 10 -8 17 -17z m-1686 -13 c3 -5 1
-10 -4 -10 -6 0 -11 5 -11 10 0 6 2 10 4 10 3 0 8 -4 11 -10z m1407 -32 c-7
-7 -12 -8 -12 -2 0 6 3 14 7 17 3 4 9 5 12 2 2 -3 -1 -11 -7 -17z m98 -3 c-7
-9 -15 -13 -18 -10 -3 2 1 11 8 20 7 9 15 13 18 10 3 -2 -1 -11 -8 -20z m-470
5 c0 -5 -5 -10 -11 -10 -5 0 -7 5 -4 10 3 6 8 10 11 10 2 0 4 -4 4 -10z m70 6
c0 -3 -4 -8 -10 -11 -5 -3 -10 -1 -10 4 0 6 5 11 10 11 6 0 10 -2 10 -4z m597
-11 c0 -17 -38 -30 -59 -22 -7 3 -3 6 8 6 12 1 24 8 28 16 7 20 23 19 23 0z
m-807 -20 c0 -8 -4 -15 -10 -15 -5 0 -7 7 -4 15 4 8 8 15 10 15 2 0 4 -7 4
-15z m177 -17 c-3 -8 -6 -5 -6 6 -1 11 2 17 5 13 3 -3 4 -12 1 -19z m93 -28
c0 -5 -5 -10 -11 -10 -5 0 -7 5 -4 10 3 6 8 10 11 10 2 0 4 -4 4 -10z m305 0
c-3 -5 -10 -10 -16 -10 -5 0 -9 5 -9 10 0 6 7 10 16 10 8 0 12 -4 9 -10z m129
-52 c8 -6 8 -8 0 -8 -6 0 -17 7 -24 15 -7 8 -16 12 -21 9 -5 -3 -9 -1 -9 5 0
17 25 19 34 2 5 -9 14 -19 20 -23z m-1264 22 c0 -5 -8 -10 -17 -10 -15 0 -16
2 -3 10 19 12 20 12 20 0z m1456 -42 c-4 -30 -36 -54 -36 -28 0 6 7 10 15 10
9 0 12 6 9 15 -4 8 -2 15 4 15 6 0 9 -6 8 -12z m-1186 -16 c0 -4 -9 -8 -19 -8
-11 0 -17 4 -15 8 3 4 12 8 20 8 8 0 14 -4 14 -8z m880 0 c0 -5 7 -9 15 -9 8
0 15 4 15 9 0 4 7 8 15 8 8 0 15 -7 15 -16 0 -10 -8 -15 -22 -14 -42 4 -55 0
-55 -15 0 -8 7 -17 15 -20 10 -3 12 0 8 10 -3 8 -1 15 3 15 14 0 19 -23 7 -36
-6 -6 -19 -9 -29 -6 -16 4 -18 1 -12 -17 3 -11 2 -21 -3 -21 -13 0 -22 39 -10
46 5 3 6 19 3 35 -6 25 -4 28 11 22 12 -4 15 -3 10 5 -4 7 -2 12 3 12 6 0 11
-4 11 -8z m208 -4 c-3 -7 -15 -14 -29 -15 -14 -1 -17 0 -6 3 9 3 17 10 17 15
0 5 5 9 11 9 6 0 9 -6 7 -12z m133 -11 c-10 -9 -11 -8 -5 6 3 10 9 15 12 12 3
-3 0 -11 -7 -18z m-461 -3 c0 -2 -9 -4 -21 -4 -11 0 -18 4 -14 10 5 8 35 3 35
-6z m-10 -44 c0 -5 -5 -10 -11 -10 -5 0 -7 5 -4 10 3 6 8 10 11 10 2 0 4 -4 4
-10z m385 -10 c3 -5 1 -10 -4 -10 -6 0 -11 5 -11 10 0 6 2 10 4 10 3 0 8 -4
11 -10z m-1290 -21 c-10 -15 -25 -10 -19 6 4 8 10 12 15 9 5 -3 7 -10 4 -15z
m45 17 c0 -2 -8 -10 -17 -17 -16 -13 -17 -12 -4 4 13 16 21 21 21 13z m-140
-19 c0 -6 -33 -40 -52 -56 -31 -23 -20 -1 14 30 32 28 38 33 38 26z m1148 -13
c-16 -8 -28 -19 -28 -23 0 -5 -15 -14 -32 -21 -129 -48 -227 -82 -248 -86 -30
-6 26 17 135 55 94 33 136 54 154 75 8 9 21 16 30 16 10 -1 6 -6 -11 -16z
m117 6 c3 -5 1 -10 -4 -10 -6 0 -11 5 -11 10 0 6 2 10 4 10 3 0 8 -4 11 -10z
m-1535 -9 c0 -5 -7 -11 -14 -14 -10 -4 -13 -1 -9 9 6 15 23 19 23 5z m1286 -7
c-22 -13 -31 -13 -40 -3 -8 9 -7 11 5 6 9 -3 22 -1 30 4 8 5 19 9 24 8 6 0 -3
-7 -19 -15z m-56 -15 c0 -5 -4 -9 -8 -9 -5 0 -9 7 -9 15 0 8 4 12 9 9 4 -3 8
-9 8 -15z m360 11 c0 -5 -4 -10 -10 -10 -5 0 -10 5 -10 10 0 6 5 10 10 10 6 0
10 -4 10 -10z m-418 -19 c2 7 10 10 16 8 8 -3 6 -10 -8 -21 -19 -17 -20 -16
-31 5 -11 19 -10 21 3 9 12 -10 17 -10 20 -1z m624 -18 c-7 -7 -26 7 -26 19 0
6 6 6 15 -2 9 -7 13 -15 11 -17z m-809 -9 c-3 -3 -12 -4 -19 -1 -8 3 -5 6 6 6
11 1 17 -2 13 -5z m672 -53 c-27 -22 -32 -21 -23 3 3 9 13 16 21 16 8 0 11 5
7 13 -5 9 -4 9 6 0 11 -10 9 -16 -11 -32z m-721 5 c-15 -13 -25 -26 -22 -28 2
-3 -3 -5 -11 -5 -23 0 -18 10 18 35 41 29 49 28 15 -2z m-738 0 c0 -3 -4 -8
-10 -11 -5 -3 -10 -1 -10 4 0 6 5 11 10 11 6 0 10 -2 10 -4z m50 -10 c0 -3 -4
-8 -10 -11 -5 -3 -10 -1 -10 4 0 6 5 11 10 11 6 0 10 -2 10 -4z m1547 -10 c-3
-8 -1 -17 6 -20 7 -2 8 -5 2 -5 -18 -1 -38 17 -31 28 10 16 29 13 23 -3z
m-727 0 c0 -3 -26 -12 -57 -21 -32 -9 -78 -29 -103 -45 -64 -40 -223 -92 -255
-84 -22 5 -26 3 -23 -12 3 -18 -6 -22 -105 -43 -29 -7 -35 -6 -27 4 6 7 20 10
33 8 13 -3 29 2 35 10 7 8 21 13 31 10 13 -3 20 1 23 14 2 14 13 18 48 19 47
2 203 56 232 81 28 25 168 73 168 59z m-1223 -68 c-7 -4 -3 -10 13 -16 l24 -9
-25 -5 c-22 -4 -24 -1 -25 34 -1 34 0 36 11 21 10 -13 10 -20 2 -25z m1639 35
c-10 -10 -46 -11 -46 -1 0 4 12 8 27 8 14 0 23 -3 19 -7z m384 3 c0 -3 -4 -8
-10 -11 -5 -3 -10 -1 -10 4 0 6 5 11 10 11 6 0 10 -2 10 -4z m-2053 -33 c1
-24 0 -25 -6 -8 -7 17 -6 35 2 35 2 0 3 -12 4 -27z m353 11 c0 -8 -5 -12 -10
-9 -6 4 -8 11 -5 16 9 14 15 11 15 -7z m-245 -11 c3 -10 6 -20 5 -22 -1 -2 4
-7 11 -12 8 -4 10 -11 6 -15 -3 -4 -14 -1 -22 6 -13 11 -13 15 -3 21 10 7 9 9
-3 9 -9 0 -16 7 -16 15 0 20 13 19 22 -2z m877 -5 c-6 -6 -15 -8 -19 -4 -4 4
-1 11 7 16 19 12 27 3 12 -12z m978 8 c9 -12 8 -15 -8 -13 -10 0 -19 7 -19 14
0 17 12 17 27 -1z m-210 0 c0 -3 -4 -8 -10 -11 -5 -3 -10 -1 -10 4 0 6 5 11
10 11 6 0 10 -2 10 -4z m-1456 -41 c-4 -8 -8 -15 -10 -15 -2 0 -4 7 -4 15 0 8
4 15 10 15 5 0 7 -7 4 -15z m406 5 c0 -5 -8 -10 -17 -10 -15 0 -16 2 -3 10 19
12 20 12 20 0z m1184 -5 c3 -8 1 -15 -3 -15 -5 0 -11 7 -15 15 -3 8 -1 15 3
15 5 0 11 -7 15 -15z m-54 -5 c0 -5 -4 -10 -10 -10 -5 0 -10 5 -10 10 0 6 5
10 10 10 6 0 10 -4 10 -10z m-1855 -9 c-3 -5 4 -16 16 -25 13 -9 18 -19 14
-27 -5 -8 -4 -10 3 -5 25 15 11 -15 -19 -41 -19 -17 -41 -27 -59 -27 l-29 1
20 -28 c23 -32 21 -31 43 -23 11 4 14 13 10 29 -4 16 1 27 17 39 31 21 40 9
10 -15 -13 -11 -22 -21 -20 -23 10 -10 49 35 51 59 2 15 8 29 15 32 9 4 9 8 0
18 -7 7 -16 11 -20 8 -5 -3 -4 4 2 16 13 24 23 28 15 6 -5 -13 6 -15 77 -12
46 1 91 7 99 11 12 7 12 6 4 -3 -16 -18 -7 -43 23 -65 15 -11 23 -14 19 -8
-12 20 4 14 36 -13 16 -14 34 -23 39 -19 5 3 9 1 9 -5 0 -5 -5 -13 -11 -16 -6
-4 2 -16 20 -29 32 -21 71 -87 71 -117 0 -9 -7 -22 -15 -29 -9 -7 -25 -32 -35
-55 -11 -24 -27 -45 -36 -49 -50 -19 -266 5 -334 37 -26 13 -51 38 -45 47 2 3
-8 7 -21 8 -23 2 -24 0 -10 -14 20 -19 20 -29 0 -48 -20 -20 -19 -21 -21 10 0
15 -7 30 -13 34 -7 5 -10 18 -7 31 11 46 14 64 10 52 -3 -7 -9 -13 -14 -13 -5
0 -8 -5 -6 -11 1 -6 -4 -14 -10 -16 -18 -6 -16 12 2 27 16 13 21 35 6 26 -5
-4 -6 9 -1 29 6 28 5 35 -7 35 -10 0 -12 6 -8 20 3 11 3 20 -2 20 -16 0 -13
58 4 64 23 9 28 -1 12 -21 -13 -16 -12 -17 4 -4 9 7 17 20 17 27 0 13 4 16 33
18 18 2 38 32 31 50 -3 9 -1 16 6 16 6 0 9 -4 5 -9z m371 -28 c-3 -3 -13 -2
-23 2 -17 8 -17 8 0 12 9 3 18 10 18 16 1 7 3 4 6 -6 3 -10 2 -21 -1 -24z
m1599 17 c3 -5 2 -10 -4 -10 -5 0 -13 5 -16 10 -3 6 -2 10 4 10 5 0 13 -4 16
-10z m-1574 -23 c-10 -9 -11 -8 -5 6 3 10 9 15 12 12 3 -3 0 -11 -7 -18z
m-431 -4 c-8 -3 -24 -10 -35 -16 -18 -9 -19 -9 -6 6 7 10 23 17 35 16 14 0 16
-2 6 -6z m324 -1 c2 -4 -4 -9 -15 -9 -10 -1 -19 2 -19 8 0 11 27 12 34 1z
m1794 -27 c0 -18 -4 -23 -12 -16 -7 6 -23 8 -37 5 -14 -2 -9 2 11 9 29 12 32
15 15 19 -19 5 -19 6 1 7 17 1 22 -5 22 -24z m-143 -5 c-3 -5 -11 -10 -16 -10
-6 0 -7 5 -4 10 3 6 11 10 16 10 6 0 7 -4 4 -10z m59 -8 c5 -3 -1 -9 -14 -14
-12 -5 -25 -6 -28 -3 -3 3 0 5 8 5 10 0 10 3 0 15 -11 13 -10 14 6 9 10 -4 23
-9 28 -12z m-634 -2 c0 -5 -5 -10 -11 -10 -5 0 -7 5 -4 10 3 6 8 10 11 10 2 0
4 -4 4 -10z m-1535 -28 c-6 -7 -45 9 -45 18 0 4 11 3 24 -3 14 -7 23 -13 21
-15z m1925 18 c0 -5 -6 -10 -14 -10 -8 0 -18 5 -21 10 -3 6 3 10 14 10 12 0
21 -4 21 -10z m-1265 -9 c3 -5 1 -12 -5 -16 -5 -3 -10 1 -10 9 0 18 6 21 15 7z
m725 -13 c0 6 5 12 11 12 8 0 8 -5 -1 -15 -7 -8 -21 -15 -32 -15 -17 0 -18 2
-8 15 11 13 15 13 21 3 7 -10 9 -10 9 0z m689 -19 c-19 -12 -39 -11 -39 1 0 5
7 7 15 4 9 -4 18 1 22 12 5 13 8 14 11 5 2 -7 -2 -17 -9 -22z m-1344 11 c3 -5
1 -10 -4 -10 -6 0 -11 5 -11 10 0 6 2 10 4 10 3 0 8 -4 11 -10z m1575 6 c0 -3
-4 -8 -10 -11 -5 -3 -10 -1 -10 4 0 6 5 11 10 11 6 0 10 -2 10 -4z m-990 -16
c0 -5 -2 -10 -4 -10 -3 0 -8 5 -11 10 -3 6 -1 10 4 10 6 0 11 -4 11 -10z m225
-8 c-3 -3 -11 0 -18 7 -9 10 -8 11 6 5 10 -3 15 -9 12 -12z m485 -7 c0 -20 -5
-25 -22 -24 -17 1 -19 2 -5 6 9 2 17 13 17 24 0 10 2 19 5 19 3 0 5 -11 5 -25z
m120 15 c0 -5 -5 -10 -11 -10 -5 0 -7 5 -4 10 3 6 8 10 11 10 2 0 4 -4 4 -10z
m110 0 c0 -5 -2 -10 -4 -10 -3 0 -8 5 -11 10 -3 6 -1 10 4 10 6 0 11 -4 11
-10z m-350 -4 c0 -3 -4 -8 -10 -11 -5 -3 -10 -1 -10 4 0 6 5 11 10 11 6 0 10
-2 10 -4z m310 -11 c0 -15 -46 -32 -57 -21 -4 3 1 6 11 6 10 0 14 5 10 12 -4
7 -3 8 4 4 7 -4 12 -2 12 3 0 6 5 11 10 11 6 0 10 -7 10 -15z m-2503 -1 c-3
-3 -12 -4 -19 -1 -8 3 -5 6 6 6 11 1 17 -2 13 -5z m2108 -14 c-3 -5 -12 -7
-20 -3 -21 7 -19 13 6 13 11 0 18 -4 14 -10z m-1968 -6 c-3 -3 -12 -4 -19 -1
-8 3 -5 6 6 6 11 1 17 -2 13 -5z m123 -18 c0 -3 -4 -8 -10 -11 -5 -3 -10 -1
-10 4 0 6 5 11 10 11 6 0 10 -2 10 -4z m2085 -6 c-3 -5 -11 -10 -16 -10 -6 0
-7 5 -4 10 3 6 11 10 16 10 6 0 7 -4 4 -10z m-185 -12 c0 -11 -22 -10 -40 2
-11 8 -9 9 13 8 15 -1 27 -6 27 -10z m235 -28 c-3 -5 -12 -10 -18 -10 -7 0 -6
4 3 10 19 12 23 12 15 0z m55 -15 c-7 -8 -18 -15 -24 -15 -6 0 -4 5 4 10 8 5
11 10 5 10 -5 0 -3 4 5 10 20 12 26 4 10 -15z m-247 -38 c8 4 7 1 -1 -9 -13
-17 -56 -32 -46 -17 3 5 12 9 19 9 8 0 13 6 11 13 -1 6 -1 9 1 4 3 -4 10 -4
16 0z m177 3 c0 -5 -2 -10 -4 -10 -3 0 -8 5 -11 10 -3 6 -1 10 4 10 6 0 11 -4
11 -10z m-300 -10 c-8 -5 -19 -10 -25 -10 -5 0 -3 5 5 10 8 5 20 10 25 10 6 0
3 -5 -5 -10z m-40 -30 c0 -5 -12 -10 -27 -9 -25 0 -26 1 -8 9 27 12 35 12 35
0z m290 0 c-8 -5 -19 -10 -25 -10 -5 0 -3 5 5 10 8 5 20 10 25 10 6 0 3 -5 -5
-10z m190 1 c0 -5 -16 -18 -35 -30 -41 -24 -45 -18 -9 15 26 25 44 31 44 15z
m-2673 -7 c-3 -3 -12 -4 -19 -1 -8 3 -5 6 6 6 11 1 17 -2 13 -5z m513 -14 c0
-5 -5 -10 -11 -10 -5 0 -7 5 -4 10 3 6 8 10 11 10 2 0 4 -4 4 -10z m1290 -31
c0 -5 -5 -9 -11 -9 -5 0 -7 5 -4 10 3 6 1 10 -4 10 -6 0 -11 5 -11 11 0 8 5 8
15 -1 8 -7 15 -16 15 -21z m-73 -5 c-9 -9 -28 6 -21 18 4 6 10 6 17 -1 6 -6 8
-13 4 -17z m417 17 c3 -5 -1 -11 -9 -14 -9 -4 -12 -1 -8 9 6 16 10 17 17 5z
m111 -22 c4 -6 14 -8 22 -5 8 3 11 1 8 -4 -3 -6 -1 -10 6 -10 7 0 10 -3 6 -6
-3 -4 -21 3 -39 15 -18 11 -28 21 -21 21 6 0 15 -5 18 -11z m80 -7 c-3 -3 -11
0 -18 7 -9 10 -8 11 6 5 10 -3 15 -9 12 -12z m171 3 c-24 -18 -33 -19 -42 -3
-5 8 -2 9 9 5 9 -3 19 -2 22 3 4 6 12 10 18 10 7 0 3 -7 -7 -15z m89 -3 c-3
-3 -11 0 -18 7 -9 10 -8 11 6 5 10 -3 15 -9 12 -12z m-365 -7 c0 -7 -30 -13
-34 -7 -3 4 4 9 15 9 10 1 19 0 19 -2z m-1596 -20 c3 -8 12 -15 20 -15 8 0 18
-9 21 -21 4 -11 10 -18 13 -14 3 3 11 -4 18 -16 14 -26 56 -33 101 -17 26 9
36 8 58 -6 15 -10 24 -20 20 -24 -3 -4 -10 0 -15 8 -6 8 -10 11 -10 7 0 -4 -8
-3 -18 2 -11 6 -24 5 -37 -2 -11 -6 -27 -12 -35 -13 -8 -1 -19 -3 -25 -4 -16
-5 -65 22 -65 36 0 16 -30 27 -31 11 0 -7 -5 -1 -10 13 -6 14 -17 28 -25 33
-8 4 -14 15 -14 22 0 20 26 19 34 0z m411 -6 c18 -8 17 -9 -4 -5 -14 3 -32 0
-40 -7 -14 -11 -14 -10 -2 6 15 19 18 19 46 6z m1505 7 c0 -3 -4 -8 -10 -11
-5 -3 -10 -1 -10 4 0 6 5 11 10 11 6 0 10 -2 10 -4z m-740 -16 c0 -5 -8 -10
-17 -10 -15 0 -16 2 -3 10 19 12 20 12 20 0z m800 0 c0 -5 -4 -10 -10 -10 -5
0 -10 5 -10 10 0 6 5 10 10 10 6 0 10 -4 10 -10z m-1349 -33 c-16 -16 -26 0
-10 19 9 11 15 12 17 4 2 -6 -1 -17 -7 -23z m1146 27 c-3 -3 -12 -4 -19 -1 -8
3 -5 6 6 6 11 1 17 -2 13 -5z m88 -4 c17 -7 14 -9 -13 -9 -20 -1 -31 3 -27 9
7 12 13 12 40 0z m-975 -4 c0 -3 -4 -8 -10 -11 -5 -3 -10 -1 -10 4 0 6 5 11
10 11 6 0 10 -2 10 -4z m1194 -21 c32 -10 12 -15 -22 -6 -22 7 -32 6 -32 -1 0
-6 -2 -9 -5 -6 -3 3 -3 12 1 21 4 11 11 13 22 7 10 -5 26 -11 36 -15z m-654
-5 c0 -5 -10 -10 -22 -9 -22 0 -22 1 -3 9 11 5 21 9 23 9 1 1 2 -3 2 -9z m100
6 c0 -3 -4 -8 -10 -11 -5 -3 -10 -1 -10 4 0 6 5 11 10 11 6 0 10 -2 10 -4z
m-180 -16 c0 -5 -10 -10 -22 -9 -22 0 -22 1 -3 9 11 5 21 9 23 9 1 1 2 -3 2
-9z m-993 -25 c-7 -13 -14 -20 -15 -14 -2 5 2 16 8 24 18 21 20 18 7 -10z
m1538 15 c-3 -5 -11 -10 -16 -10 -6 0 -7 5 -4 10 3 6 11 10 16 10 6 0 7 -4 4
-10z m-625 -4 c0 -3 -4 -8 -10 -11 -5 -3 -10 -1 -10 4 0 6 5 11 10 11 6 0 10
-2 10 -4z m455 -6 c-3 -5 -11 -10 -16 -10 -6 0 -7 5 -4 10 3 6 11 10 16 10 6
0 7 -4 4 -10z m-1871 -31 c-29 -12 -36 -10 -22 5 7 7 19 11 27 8 11 -4 10 -7
-5 -13z m436 11 c0 -5 -4 -10 -10 -10 -5 0 -10 5 -10 10 0 6 5 10 10 10 6 0
10 -4 10 -10z m-615 -17 c9 4 14 3 10 -3 -3 -6 -15 -10 -25 -10 -10 0 -21 -4
-24 -9 -3 -5 -27 -12 -52 -16 -26 -3 -54 -9 -63 -12 -11 -4 -13 -3 -6 5 6 6
33 14 60 17 60 8 65 11 65 33 0 14 2 14 9 3 5 -8 16 -11 26 -8z m390 7 c3 -5
1 -10 -4 -10 -6 0 -11 5 -11 10 0 6 2 10 4 10 3 0 8 -4 11 -10z m1345 0 c0 -5
-5 -10 -11 -10 -5 0 -7 5 -4 10 3 6 8 10 11 10 2 0 4 -4 4 -10z m170 -2 c0 -5
5 -6 12 -2 7 4 8 3 4 -4 -5 -9 -13 -9 -27 -2 -23 13 -24 17 -4 17 8 0 15 -4
15 -9z m550 -9 c0 -13 -48 -15 -64 -3 -15 10 -11 12 23 11 23 -1 41 -5 41 -8z
m-1230 -9 c0 -5 -4 -10 -10 -10 -5 0 -10 5 -10 10 0 6 5 10 10 10 6 0 10 -4
10 -10z m390 0 c0 -5 -2 -10 -4 -10 -3 0 -8 5 -11 10 -3 6 -1 10 4 10 6 0 11
-4 11 -10z m896 0 c9 0 12 -4 9 -10 -3 -5 1 -10 9 -10 9 0 16 -5 16 -10 0 -7
-6 -7 -19 0 -11 5 -27 7 -35 4 -12 -5 -15 -2 -10 12 5 18 5 18 -10 0 -17 -21
-20 -18 -10 9 4 9 13 14 21 11 8 -3 21 -6 29 -6z m-816 -10 c0 -5 -5 -10 -11
-10 -5 0 -7 5 -4 10 3 6 8 10 11 10 2 0 4 -4 4 -10z m-650 -10 c0 -5 -5 -10
-11 -10 -5 0 -7 5 -4 10 3 6 8 10 11 10 2 0 4 -4 4 -10z m395 -10 c-3 -5 -11
-10 -16 -10 -6 0 -7 5 -4 10 3 6 11 10 16 10 6 0 7 -4 4 -10z m380 0 c3 -5 2
-10 -4 -10 -5 0 -13 5 -16 10 -3 6 -2 10 4 10 5 0 13 -4 16 -10z m666 -23 c-6
-8 -8 -17 -4 -20 3 -4 -1 -7 -10 -7 -21 0 -21 4 -1 24 19 19 31 21 15 3z
m-606 -17 c3 -5 -3 -10 -15 -10 -12 0 -18 5 -15 10 3 6 10 10 15 10 5 0 12 -4
15 -10z m565 0 c0 -5 -4 -10 -10 -10 -5 0 -10 -5 -10 -11 0 -7 9 -9 21 -6 12
3 18 2 13 -2 -5 -5 -20 -11 -34 -15 -14 -3 -20 -3 -13 0 7 3 9 12 7 19 -5 11
-10 12 -25 2 -14 -9 -21 -9 -30 0 -9 9 -7 11 10 6 13 -3 21 -1 21 7 0 7 7 10
15 6 8 -3 15 -1 15 4 0 6 5 10 10 10 6 0 10 -4 10 -10z m-1023 -26 c-3 -3 -12
-4 -19 -1 -8 3 -5 6 6 6 11 1 17 -2 13 -5z m858 -14 c-3 -5 -1 -10 6 -10 7 0
10 -2 7 -5 -8 -9 -38 6 -32 16 3 5 10 9 15 9 6 0 7 -4 4 -10z m-1051 -8 c3 -5
-1 -9 -9 -9 -8 0 -15 4 -15 9 0 4 4 8 9 8 6 0 12 -4 15 -8z m306 -12 c0 -5 -5
-10 -11 -10 -5 0 -7 5 -4 10 3 6 8 10 11 10 2 0 4 -4 4 -10z m570 -14 c0 -11
-19 -15 -25 -6 -3 5 1 10 9 10 9 0 16 -2 16 -4z m255 -6 c-3 -5 -10 -10 -16
-10 -5 0 -9 5 -9 10 0 6 7 10 16 10 8 0 12 -4 9 -10z m-1065 -10 c0 -5 -2 -10
-4 -10 -3 0 -8 5 -11 10 -3 6 -1 10 4 10 6 0 11 -4 11 -10z m1207 -16 c-3 -3
-12 -4 -19 -1 -8 3 -5 6 6 6 11 1 17 -2 13 -5z m-70 -12 c9 -5 6 -12 -10 -21
-20 -13 -21 -13 -9 2 12 14 9 16 -20 20 -33 4 -33 4 -3 5 17 1 35 -2 42 -6z
m-1622 -32 c3 -5 1 -10 -4 -10 -6 0 -11 5 -11 10 0 6 2 10 4 10 3 0 8 -4 11
-10z m1136 -3 c-7 -7 -14 -8 -21 -1 -6 6 -2 10 12 11 16 2 18 -1 9 -10z m499
-7 c0 -5 -4 -10 -10 -10 -5 0 -10 5 -10 10 0 6 5 10 10 10 6 0 10 -4 10 -10z
m-220 -20 c0 -5 -2 -10 -4 -10 -3 0 -8 5 -11 10 -3 6 -1 10 4 10 6 0 11 -4 11
-10z m35 -13 c1 -7 7 -11 14 -9 7 1 10 -2 6 -8 -9 -14 -44 10 -38 27 6 15 18
8 18 -10z m97 -29 c-9 -9 -15 -9 -24 1 -11 10 -10 11 5 6 10 -5 17 -2 17 6 0
7 3 9 7 6 4 -4 1 -13 -5 -19z m-2252 2 c0 -5 -5 -10 -11 -10 -5 0 -7 5 -4 10
3 6 8 10 11 10 2 0 4 -4 4 -10z m1985 -30 c-3 -5 -18 -10 -33 -9 l-27 1 25 8
c35 11 42 11 35 0z m309 -2 c-3 -4 -11 -5 -19 -1 -21 7 -19 12 4 10 11 0 18
-5 15 -9z m-89 -16 c-3 -3 -11 0 -18 7 -9 10 -8 11 6 5 10 -3 15 -9 12 -12z
m-488 2 c-3 -3 -12 -4 -19 -1 -8 3 -5 6 6 6 11 1 17 -2 13 -5z m363 -20 c0 -2
-7 -4 -15 -4 -8 0 -15 4 -15 10 0 5 7 7 15 4 8 -4 15 -8 15 -10z m-515 -12
c-3 -3 -11 0 -18 7 -9 10 -8 11 6 5 10 -3 15 -9 12 -12z m655 -12 c0 -5 -10
-10 -22 -9 -22 0 -22 1 -3 9 11 5 21 9 23 9 1 1 2 -3 2 -9z m-230 -4 c0 -9
-30 -14 -35 -6 -4 6 3 10 14 10 12 0 21 -2 21 -4z m-195 -16 c3 -5 1 -10 -4
-10 -6 0 -11 5 -11 10 0 6 2 10 4 10 3 0 8 -4 11 -10z m476 -18 c-7 -2 -18 1
-23 6 -8 8 -4 9 13 5 13 -4 18 -8 10 -11z m-221 -2 c0 -5 -4 -10 -9 -10 -6 0
-13 5 -16 10 -3 6 1 10 9 10 9 0 16 -4 16 -10z m-217 -41 c-9 -9 -12 -7 -10 9
1 14 5 18 11 12 7 -7 6 -14 -1 -21z m52 21 c3 -5 -1 -10 -10 -10 -9 0 -13 5
-10 10 3 6 8 10 10 10 2 0 7 -4 10 -10z m-610 -10 c-3 -5 -12 -10 -18 -10 -7
0 -6 4 3 10 19 12 23 12 15 0z m395 0 c0 -5 -5 -10 -11 -10 -5 0 -7 5 -4 10 3
6 8 10 11 10 2 0 4 -4 4 -10z m-323 -6 c-3 -3 -12 -4 -19 -1 -8 3 -5 6 6 6 11
1 17 -2 13 -5z m-997 -8 c0 -3 -4 -8 -10 -11 -5 -3 -10 -1 -10 4 0 6 5 11 10
11 6 0 10 -2 10 -4z m1620 -40 c0 -3 -4 -8 -10 -11 -5 -3 -10 -1 -10 4 0 6 5
11 10 11 6 0 10 -2 10 -4z m60 0 c0 -3 -4 -8 -10 -11 -5 -3 -10 -1 -10 4 0 6
5 11 10 11 6 0 10 -2 10 -4z m-210 -16 c0 -5 -2 -10 -4 -10 -3 0 -8 5 -11 10
-3 6 -1 10 4 10 6 0 11 -4 11 -10z m235 -30 c3 -5 1 -10 -4 -10 -6 0 -11 5
-11 10 0 6 2 10 4 10 3 0 8 -4 11 -10z m-780 -10 c3 -5 1 -10 -4 -10 -6 0 -11
5 -11 10 0 6 2 10 4 10 3 0 8 -4 11 -10z m835 -5 c-7 -8 -17 -15 -22 -15 -11
0 14 29 26 30 5 0 3 -7 -4 -15z m-1270 1 c0 -3 -4 -8 -10 -11 -5 -3 -10 -1
-10 4 0 6 5 11 10 11 6 0 10 -2 10 -4z m971 -31 c5 4 9 1 9 -4 0 -13 -10 -14
-29 -2 -8 6 -10 14 -5 22 7 11 9 10 12 -4 2 -9 8 -15 13 -12z m164 15 c3 -5
-1 -10 -10 -10 -9 0 -13 5 -10 10 3 6 8 10 10 10 2 0 7 -4 10 -10z m180 0 c-3
-5 -14 -10 -23 -10 -15 0 -15 2 -2 10 20 13 33 13 25 0z m-1215 -10 c0 -5 -5
-10 -11 -10 -5 0 -7 5 -4 10 3 6 8 10 11 10 2 0 4 -4 4 -10z m157 -6 c-3 -3
-12 -4 -19 -1 -8 3 -5 6 6 6 11 1 17 -2 13 -5z m600 -10 c-3 -3 -12 -4 -19 -1
-8 3 -5 6 6 6 11 1 17 -2 13 -5z m313 -24 c0 -5 -5 -10 -11 -10 -5 0 -7 5 -4
10 3 6 8 10 11 10 2 0 4 -4 4 -10z m-845 -50 c3 -5 1 -10 -4 -10 -6 0 -11 5
-11 10 0 6 2 10 4 10 3 0 8 -4 11 -10z m655 0 c0 -5 -5 -10 -11 -10 -5 0 -7 5
-4 10 3 6 8 10 11 10 2 0 4 -4 4 -10z m-870 -10 c0 -5 -4 -10 -10 -10 -5 0
-10 5 -10 10 0 6 5 10 10 10 6 0 10 -4 10 -10z m710 -20 c0 -5 -4 -10 -10 -10
-5 0 -10 5 -10 10 0 6 5 10 10 10 6 0 10 -4 10 -10z m230 -10 c0 -5 -10 -10
-22 -10 -19 0 -20 2 -8 10 19 13 30 13 30 0z m215 -80 c-3 -5 -14 -10 -23 -9
-14 0 -13 2 3 9 27 11 27 11 20 0z m-670 -30 c3 -5 2 -10 -4 -10 -5 0 -13 5
-16 10 -3 6 -2 10 4 10 5 0 13 -4 16 -10z m655 -10 c0 -5 -4 -10 -10 -10 -5 0
-10 5 -10 10 0 6 5 10 10 10 6 0 10 -4 10 -10z m-490 -10 c0 -5 -5 -10 -11
-10 -5 0 -7 5 -4 10 3 6 8 10 11 10 2 0 4 -4 4 -10z m-670 -540 c0 -5 -2 -10
-4 -10 -3 0 -8 5 -11 10 -3 6 -1 10 4 10 6 0 11 -4 11 -10z"/>
<path d="M1937 2173 c-13 -12 -7 -33 8 -33 8 0 15 5 15 11 0 5 -5 7 -12 3 -8
-5 -9 -2 -5 9 7 18 5 21 -6 10z"/>
<path d="M1947 2123 c-4 -3 -7 -13 -7 -22 1 -13 3 -13 11 2 11 19 8 33 -4 20z"/>
<path d="M3709 3278 c17 -27 34 -48 37 -48 9 0 -30 61 -50 78 -11 9 -5 -4 13
-30z"/>
</g>
</svg>
